General
*****************

Complete name                    : Spartacus-Blood.and.Sand.S01E03.Legends.[phTV].mkv
Format                           : Matroska
File size                        : 131 MiB
Duration                         : 53mn 21s
Overall bit rate                 : 343 Kbps
Encoded date                     : UTC 2012-01-30 09:20:42
Writing application              : mkvmerge v4.8.0 ('I Got The...') built on May 24 2011 03:12:58
Writing library                  : libebml v1.2.0 + libmatroska v1.1.0

Video
*****************
ID                               : 1
Format                           : AVC
Format/Info                      : Advanced Video Codec
Format profile                   : High@L3.0
Format settings, CABAC           : Yes
Format settings, ReFrames        : 4 frames
Muxing mode                      : Container profile=Unknown@3.0
Codec ID                         : V_MPEG4/ISO/AVC
Duration                         : 53mn 21s
Bit rate                         : 272 Kbps
Width                            : 624 pixels
Height                           : 352 pixels
Display aspect ratio             : 16:9
Frame rate                       : 23.976 fps
Color space                      : YUV
Chroma subsampling               : 4:2:0
Bit depth                        : 8 bits
Scan type                        : Progressive
Bits/(Pixel*Frame)               : 0.052
Stream size                      : 104 MiB (79%)

Audio
*****************
ID                               : 2
Format                           : AC-3
Format/Info                      : Audio Coding 3
Mode extension                   : CM (complete main)
Codec ID                         : A_AC3
Duration                         : 53mn 21s
Bit rate mode                    : Constant
Bit rate                         : 64.0 Kbps
Channel(s)                       : 2 channels
Channel positions                : Front: L R
Sampling rate                    : 48.0 KHz
Video delay                      : 26ms
Stream size                      : 24.4 MiB (19%)


Subtitle
*****************
Language                         : English
Format                           : srt

-----------------------------------------------------------------
!      ...Hi..... enjoy... and don't forget to SEED... pls       !
!                     ....take care....                          !
-----------------------------------------------------------------